<?xml version="1.0" encoding="UTF-8"?>
<!DOCTYPE svg PUBLIC "-//W3C//DTD SVG 1.1//EN" "http://www.w3.org/Graphics/SVG/1.1/DTD/svg11.dtd">
<svg xmlns="http://www.w3.org/2000/svg" version="1.1" width="16px" height="16px" style="shape-rendering:geometricPrecision; text-rendering:geometricPrecision; image-rendering:optimizeQuality; fill-rule:evenodd; clip-rule:evenodd" xmlns:xlink="http://www.w3.org/1999/xlink">
<g><path style="opacity:1" fill="#1b1b1b" d="M -0.5,-0.5 C 4.83333,-0.5 10.1667,-0.5 15.5,-0.5C 15.5,4.83333 15.5,10.1667 15.5,15.5C 10.1667,15.5 4.83333,15.5 -0.5,15.5C -0.5,10.1667 -0.5,4.83333 -0.5,-0.5 Z"/></g>
<g><path style="opacity:1" fill="#ca7831" d="M 13.5,7.5 C 13.1667,7.5 12.8333,7.5 12.5,7.5C 11.2794,6.97168 10.1127,6.30501 9,5.5C 8.53566,6.09442 8.36899,6.76109 8.5,7.5C 7.83333,7.83333 7.16667,8.16667 6.5,8.5C 6.64899,4.99927 5.64899,4.66594 3.5,7.5C 2.83333,7.5 2.16667,7.5 1.5,7.5C -0.0723445,5.13313 0.260989,3.13313 2.5,1.5C 6.18347,2.57172 9.85014,2.73839 13.5,2C 14.7525,3.82784 14.7525,5.66117 13.5,7.5 Z"/></g>
<g><path style="opacity:1" fill="#322325" d="M 6.5,8.5 C 5.36524,7.89728 4.36524,7.56395 3.5,7.5C 5.64899,4.66594 6.64899,4.99927 6.5,8.5 Z"/></g>
<g><path style="opacity:1" fill="#413535" d="M 12.5,7.5 C 12.0269,8.90632 11.0269,9.57298 9.5,9.5C 9.67158,8.50838 9.33825,7.84171 8.5,7.5C 8.36899,6.76109 8.53566,6.09442 9,5.5C 10.1127,6.30501 11.2794,6.97168 12.5,7.5 Z"/></g>
<g><path style="opacity:1" fill="#f6d4be" d="M 12.5,7.5 C 12.8333,7.5 13.1667,7.5 13.5,7.5C 14.404,8.20895 14.7373,9.20895 14.5,10.5C 12.8166,10.3811 11.15,10.0478 9.5,9.5C 11.0269,9.57298 12.0269,8.90632 12.5,7.5 Z"/></g>
<g><path style="opacity:1" fill="#dbac9f" d="M 1.5,7.5 C 2.16667,7.5 2.83333,7.5 3.5,7.5C 4.36524,7.56395 5.36524,7.89728 6.5,8.5C 7.16667,8.16667 7.83333,7.83333 8.5,7.5C 9.33825,7.84171 9.67158,8.50838 9.5,9.5C 6.24351,10.0102 3.24351,10.0102 0.5,9.5C 0.32842,8.50838 0.661754,7.84171 1.5,7.5 Z"/></g>
<g><path style="opacity:1" fill="#80362b" d="M 0.5,9.5 C 3.24351,10.0102 6.24351,10.0102 9.5,9.5C 11.15,10.0478 12.8166,10.3811 14.5,10.5C 14.5,11.8333 14.5,13.1667 14.5,14.5C 9.83333,14.5 5.16667,14.5 0.5,14.5C 0.5,12.8333 0.5,11.1667 0.5,9.5 Z"/></g>
</svg>
